# xmcd
# Copyright (C) 1995-1998 Ti Kan
#
# Track frame offsets:
#       150
#       15796
#       33288
#       43623
#       60280
#       72131
#       83903
#       100909
#       112841
#       131813
#       147135
#       162063
#
# Disc length: 2417 seconds
#
# Revision: 0
# Processed by: cddbd v1.5.2PL0 Copyright (c) Steve Scherf et al.
# Submitted via: CD-Import v1.0
#
DISCID=89096f0c
DTITLE=Nadja Zela - Ciao Amore
DYEAR=09
DGENRE=
TTITLE0=Paper Doll
TTITLE1=Mothermurder
TTITLE2=The Birds
TTITLE3=Ciao Amore
TTITLE4=Walking The Dog
TTITLE5=Burning Tree
TTITLE6=Alien
TTITLE7=Morninglight
TTITLE8=The Maker Makes
TTITLE9=Lost Lover Blues
TTITLE10=Sandman
TTITLE11=Just We Two
EXTD=
EXTT0=
EXTT1=
EXTT2=
EXTT3=
EXTT4=
EXTT5=
EXTT6=
EXTT7=
EXTT8=
EXTT9=
EXTT10=
EXTT11=
PLAYORDER=
